<svg width="38" height="38" viewBox="0 0 38 38" fill="none" xmlns="http://www.w3.org/2000/svg">
<circle cx="19" cy="19" r="18.5" stroke="#D9D9D9"/>
<circle cx="19" cy="19" r="16.8077" fill="#FFF500"/>
<path d="M24.8462 9.02715C24.8462 11.8523 22.2242 15.3462 19.3654 15.3462C16.5066 15.3462 13.8846 11.8523 13.8846 9.02715C13.8846 6.202 16.5066 5.11539 19.3654 5.11539C22.2242 5.11539 24.8462 6.202 24.8462 9.02715Z" fill="#051025"/>
<path d="M9.02715 13.8846C11.8523 13.8846 15.3462 16.5066 15.3462 19.3654C15.3462 22.2242 11.8523 24.8462 9.02715 24.8462C6.202 24.8462 5.11539 22.2242 5.11539 19.3654C5.11539 16.5066 6.202 13.8846 9.02715 13.8846Z" fill="#051025"/>
<path d="M29.7036 24.8462C26.8785 24.8462 23.3846 22.2242 23.3846 19.3654C23.3846 16.5066 26.8785 13.8846 29.7036 13.8846C32.5288 13.8846 33.6154 16.5066 33.6154 19.3654C33.6154 22.2242 32.5288 24.8462 29.7036 24.8462Z" fill="#051025"/>
<path d="M24.8462 28.9728C24.8462 26.1477 22.2242 22.6538 19.3654 22.6538C16.5066 22.6538 13.8846 26.1477 13.8846 28.9728C13.8846 31.798 16.5066 32.8846 19.3654 32.8846C22.2242 32.8846 24.8462 31.798 24.8462 28.9728Z" fill="#051025"/>
<circle cx="19.3654" cy="19.3654" r="1.82692" fill="#051025"/>
<circle cx="21.9231" cy="16.8077" r="0.730769" fill="#051025"/>
<circle cx="21.9231" cy="21.9231" r="0.730769" fill="#051025"/>
<circle cx="16.8077" cy="21.9231" r="0.730769" fill="#051025"/>
<circle cx="16.8077" cy="16.8077" r="0.730769" fill="#051025"/>
</svg>


